<svg width="180" height="180" viewBox="0 0 180 180" fill="none" xmlns="http://www.w3.org/2000/svg">
<path opacity="0.344936" fill-rule="evenodd" clip-rule="evenodd" d="M40.1607 66.8284C40.1607 66.8284 78.9086 -23.797 119.124 33.5901C159.34 90.9773 155.087 134.216 119.676 133.993C-56.5905 125.419 40.1607 66.8284 40.1607 66.8284Z" fill="#FDC70C" fill-opacity="0.24"/>
<g clip-path="url(#clip0_6383_68565)">
<path d="M126.408 58.2232V145.052C126.408 148.456 123.624 151.216 120.191 151.216H48.0549C44.6211 151.216 41.8379 148.456 41.8379 145.052V58.2232C41.8379 54.8189 44.6213 52.0595 48.0549 52.0595H120.191C123.624 52.0595 126.408 54.8191 126.408 58.2232Z" fill="#FDC70C"/>
<path d="M127.506 58.2505V143.588H55.7655C52.3192 143.588 49.5259 140.817 49.5259 137.397V52.0595H121.266C124.712 52.0595 127.506 54.8313 127.506 58.2505Z" fill="#242424"/>
<path d="M145.026 126.849L75.5159 147.679C72.2065 148.67 68.7118 146.824 67.7082 143.557L42.1102 60.171C41.1042 56.9035 42.9727 53.4484 46.2821 52.4567L47.6341 52.0515L115.793 31.6244C119.102 30.633 122.597 32.4792 123.6 35.749L148.62 117.242L149.201 119.135C150.204 122.402 148.336 125.857 145.026 126.849Z" fill="#FDC70C" fill-opacity="0.24"/>
<path d="M148.374 116.53L80.9146 136.785C77.6392 137.768 74.1805 135.937 73.1872 132.697L48.4277 51.8798L115.885 31.6222C119.16 30.639 122.619 32.4698 123.612 35.7125L148.374 116.53Z" fill="#FDC70C" fill-opacity="0.24"/>
<path d="M84.6843 67.8803L85.7639 70.192L86.2494 70.0569L84.7768 67.8546L84.6843 67.8803ZM92.7351 75.292L92.8276 75.2663L91.679 72.8245L91.1703 72.9661L92.7351 75.292ZM86.5073 80.0857L84.7196 74.7618L83.1474 75.1994L82.7043 73.8798L84.2307 73.3057L83.8945 72.3046L82.3223 72.7423L81.8792 71.4227L83.4056 70.8485L81.6637 65.6611L85.2706 64.6571L88.5855 69.1081L88.7465 69.3618L89.9257 69.0335L88.1838 63.8462L91.0046 63.061L92.7464 68.2483L94.3187 67.8107L94.8076 69.2668L93.2354 69.7044L93.5715 70.7055L95.1437 70.2679L95.6327 71.724L94.0605 72.1616L95.8481 77.4855L92.2413 78.4895L88.9264 74.0386L88.6733 73.6612L87.5404 73.9766L89.328 79.3005L86.5073 80.0857ZM91.0282 71.4135L90.5765 70.4446L89.6516 70.702L90.2652 71.6259L91.0282 71.4135ZM87.7682 72.321L87.1546 71.3971L86.4378 71.5966L86.8896 72.5655L87.7682 72.321Z" fill="#FDC70C"/>
<path d="M123.815 83.072C123.523 82.1049 122.505 81.5594 121.543 81.8524L69.615 97.6718C68.6524 97.9653 68.1087 98.9869 68.4007 99.9537C68.6393 100.744 69.3617 101.253 70.143 101.253C70.3182 101.253 70.4965 101.227 70.6724 101.174L122.6 85.3541C123.563 85.0606 124.107 84.0388 123.815 83.072Z" fill="white"/>
<path d="M126.847 93.111C126.554 92.1439 125.537 91.5986 124.575 91.8913L72.6468 107.711C71.6841 108.004 71.1404 109.026 71.4324 109.992C71.671 110.782 72.3934 111.291 73.1748 111.291C73.35 111.291 73.5282 111.266 73.7041 111.212L125.632 95.3928C126.595 95.0993 127.139 94.0778 126.847 93.111Z" fill="white"/>
<path d="M129.879 103.15C129.586 102.183 128.569 101.637 127.607 101.93L75.679 117.75C74.7163 118.043 74.1727 119.065 74.4646 120.031C74.7032 120.821 75.4256 121.33 76.207 121.33C76.3822 121.33 76.5605 121.305 76.7364 121.251L128.664 105.432C129.627 105.138 130.171 104.117 129.879 103.15Z" fill="white"/>
<path d="M132.911 113.189C132.618 112.222 131.601 111.676 130.639 111.969L78.7107 127.789C77.7481 128.082 77.2044 129.104 77.4964 130.07C77.735 130.86 78.4574 131.369 79.2387 131.369C79.4139 131.369 79.5922 131.344 79.7681 131.29L131.696 115.471C132.659 115.177 133.203 114.155 132.911 113.189Z" fill="white"/>
<path d="M70.3937 43.8738L66.7204 44.9353C65.5822 41.7065 62.3795 39.3758 58.6167 39.3758C53.9023 39.3758 50.0678 43.0341 50.0678 47.5321V68.6917C50.0678 71.3202 52.3111 73.4605 55.0662 73.4605C57.8212 73.4605 60.0645 71.3202 60.0645 68.6917V47.5784C60.0645 47.3394 60.0056 47.1123 59.8957 46.9123C59.6424 46.4362 59.1233 46.1093 58.5246 46.1093C57.6753 46.1093 56.9847 46.7682 56.9847 47.5784V65.7385C56.9847 66.7488 56.1253 67.569 55.0662 67.569C54.007 67.569 53.1476 66.7491 53.1476 65.7385V47.5784C53.1476 44.7499 55.5599 42.4483 58.5246 42.4483C60.8524 42.4483 62.8375 43.8663 63.5843 45.8432C63.789 46.385 63.9014 46.9708 63.9014 47.5784V68.6914C63.9014 73.3382 59.9364 77.1209 55.0662 77.1209C50.1932 77.1209 46.231 73.338 46.231 68.6914V47.5321C46.231 41.0158 51.7868 35.7151 58.6167 35.7151C64.1088 35.7151 68.777 39.144 70.3937 43.8738Z" fill="#FDC70C"/>
</g>
<defs>
<clipPath id="clip0_6383_68565">
<rect width="107.634" height="119.859" fill="white" transform="translate(41.8379 31.3566)"/>
</clipPath>
</defs>
</svg>
