<svg width="38" height="38" viewBox="0 0 38 38" fill="none" xmlns="http://www.w3.org/2000/svg">
<rect x="1" y="1" width="36" height="36" rx="4" fill="#E5AA20" fill-opacity="0.24"/>
<path d="M25 17C25 15.4087 24.3679 13.8826 23.2426 12.7574C22.1174 11.6321 20.5913 11 19 11C17.4087 11 15.8826 11.6321 14.7574 12.7574C13.6321 13.8826 13 15.4087 13 17V25H25V17ZM27 25.667L27.4 26.2C27.4557 26.2743 27.4896 26.3626 27.498 26.4551C27.5063 26.5476 27.4887 26.6406 27.4472 26.7236C27.4057 26.8067 27.3419 26.8765 27.2629 26.9253C27.1839 26.9741 27.0929 27 27 27H11C10.9071 27 10.8161 26.9741 10.7371 26.9253C10.6581 26.8765 10.5943 26.8067 10.5528 26.7236C10.5113 26.6406 10.4937 26.5476 10.502 26.4551C10.5104 26.3626 10.5443 26.2743 10.6 26.2L11 25.667V17C11 14.8783 11.8429 12.8434 13.3431 11.3431C14.8434 9.84285 16.8783 9 19 9C21.1217 9 23.1566 9.84285 24.6569 11.3431C26.1571 12.8434 27 14.8783 27 17V25.667ZM16.5 28H21.5C21.5 28.663 21.2366 29.2989 20.7678 29.7678C20.2989 30.2366 19.663 30.5 19 30.5C18.337 30.5 17.7011 30.2366 17.2322 29.7678C16.7634 29.2989 16.5 28.663 16.5 28Z" fill="black"/>
<rect x="0.5" y="0.5" width="37" height="37" rx="4.5" stroke="black" stroke-opacity="0.25"/>
</svg>
