<svg width="30" height="38" viewBox="0 0 30 38" fill="none" xmlns="http://www.w3.org/2000/svg">
<path d="M15 0.66652C18.9783 0.66652 22.7936 2.24687 25.6066 5.05992C28.4197 7.87296 30 11.6883 30 15.6665V22.3332C30.0008 24.7471 29.419 27.1255 28.304 29.2664C27.189 31.4074 25.5738 33.2476 23.5955 34.6308C21.6173 36.0141 19.3344 36.8995 16.9408 37.2118C14.5473 37.5241 12.1136 37.2542 9.84668 36.4249C10.06 36.1299 10.265 35.8299 10.4617 35.5215L10.745 35.0549C12.3612 32.3584 13.2512 29.2893 13.3284 26.1465L13.3334 25.6665V13.9999H16.6667V25.6665C16.6703 28.5275 16.1054 31.3607 15.005 34.0015C16.2922 34.0009 17.5704 33.788 18.7884 33.3715C19.525 31.1032 19.9434 28.6915 19.995 26.1882L20 25.6665V20.6649H23.3334V25.6665C23.3334 27.4799 23.1634 29.2549 22.8367 30.9749C23.9942 29.9282 24.9293 28.6592 25.5861 27.2436C26.243 25.8279 26.6082 24.2946 26.66 22.7349L26.6667 22.3332V15.6665C26.6667 13.5013 26.0641 11.3788 24.9265 9.53653C23.7888 7.69427 22.1609 6.20495 20.225 5.23525C18.289 4.26555 16.1214 3.85373 13.9647 4.04586C11.808 4.238 9.74739 5.02653 8.01335 6.32319L5.63835 3.94652C8.29414 1.81865 11.5969 0.661473 15 0.66652ZM6.66668 15.6665C6.66668 13.4564 7.54466 11.3368 9.10746 9.77396C10.6703 8.21116 12.7899 7.33319 15 7.33319C17.2102 7.33319 19.3298 8.21116 20.8926 9.77396C22.4554 11.3368 23.3334 13.4564 23.3334 15.6665V17.3332H20V15.6665C20.0013 14.365 19.495 13.1143 18.5887 12.1802C17.6825 11.246 16.4477 10.702 15.1467 10.6639C13.8458 10.6257 12.5812 11.0963 11.6217 11.9756C10.6622 12.855 10.0835 14.0738 10.0084 15.3732L10 15.6665V25.6665C10 28.2782 9.33335 30.7332 8.16002 32.8715L8.12002 32.9382C7.73668 33.6282 7.30168 34.2849 6.81668 34.9032C6.08377 34.4253 5.39394 33.8843 4.75502 33.2865L4.24002 32.7865C1.51588 29.9894 -0.00590305 26.2376 1.72093e-05 22.3332V15.6665C1.72093e-05 12.1249 1.22668 8.86985 3.28002 6.30485L5.65668 8.67986C4.22724 10.5852 3.41845 12.8842 3.34002 15.2649L3.33335 15.6665V22.3332C3.33335 25.1249 4.31335 27.6865 5.95002 29.6949C6.38036 28.5321 6.62011 27.3074 6.66002 26.0682L6.66668 25.6665V15.6665Z" fill="#E33119"/>
</svg>
