<svg width="20" height="20" viewBox="0 0 20 20" fill="none" xmlns="http://www.w3.org/2000/svg">
<path d="M13.414 4.00005H19.008C19.556 4.00005 20 4.44505 20 5.00005V19C20 19.552 19.545 20 19.008 20H0.992018C0.861146 19.9998 0.731614 19.9737 0.610855 19.9232C0.490096 19.8728 0.380487 19.799 0.288319 19.7061C0.196151 19.6132 0.123237 19.503 0.0737631 19.3818C0.024289 19.2607 -0.000772111 19.1309 1.81223e-05 19V5.00005C1.81223e-05 4.44805 0.455018 4.00005 0.992018 4.00005H6.58602L4.05002 1.46405L5.46402 0.0500488L9.41402 4.00005H10.586L14.536 0.0500488L15.95 1.46405L13.414 4.00005ZM2.00002 6.00005V18H18V6.00005H2.00002Z" fill="black"/>
</svg>
