<svg width="25" height="26" viewBox="0 0 25 26" fill="none" xmlns="http://www.w3.org/2000/svg">
<path d="M4.03262 7.41424L0.788147 4.17077L2.20379 2.75513L5.44726 5.9996H20.6962C20.8521 5.99958 21.0059 6.03603 21.1452 6.10601C21.2846 6.176 21.4056 6.27759 21.4988 6.40267C21.5919 6.52776 21.6544 6.67288 21.6815 6.82646C21.7086 6.98003 21.6993 7.1378 21.6546 7.28718L19.2535 15.2908C19.1917 15.497 19.0651 15.6777 18.8925 15.8062C18.7198 15.9347 18.5103 16.0041 18.2951 16.0041H6.03352V18.005H17.0385V20.0059H5.03307C4.76773 20.0059 4.51326 19.9005 4.32564 19.7129C4.13802 19.5253 4.03262 19.2708 4.03262 19.0055V7.41424ZM6.03352 8.0005V14.0032H17.5507L19.3515 8.0005H6.03352ZM5.53329 24.0077C5.13529 24.0077 4.75359 23.8496 4.47215 23.5682C4.19072 23.2868 4.03262 22.9051 4.03262 22.5071C4.03262 22.1091 4.19072 21.7274 4.47215 21.4459C4.75359 21.1645 5.13529 21.0064 5.53329 21.0064C5.9313 21.0064 6.313 21.1645 6.59444 21.4459C6.87587 21.7274 7.03397 22.1091 7.03397 22.5071C7.03397 22.9051 6.87587 23.2868 6.59444 23.5682C6.313 23.8496 5.9313 24.0077 5.53329 24.0077ZM17.5387 24.0077C17.1407 24.0077 16.759 23.8496 16.4776 23.5682C16.1962 23.2868 16.038 22.9051 16.038 22.5071C16.038 22.1091 16.1962 21.7274 16.4776 21.4459C16.759 21.1645 17.1407 21.0064 17.5387 21.0064C17.9367 21.0064 18.3184 21.1645 18.5999 21.4459C18.8813 21.7274 19.0394 22.1091 19.0394 22.5071C19.0394 22.9051 18.8813 23.2868 18.5999 23.5682C18.3184 23.8496 17.9367 24.0077 17.5387 24.0077Z" fill="#BDBDBD"/>
</svg>
