<svg width="25" height="26" viewBox="0 0 25 26" fill="none" xmlns="http://www.w3.org/2000/svg">
<g clip-path="url(#clip0_11_1567)">
<g filter="url(#filter0_d_11_1567)">
<path d="M21.8068 4.96819C22.9653 6.12653 23.6439 7.67947 23.707 9.31654C23.7701 10.9536 23.2129 12.5542 22.1469 13.7982L22.1599 13.8112L21.8057 14.1644L20.3911 12.7487L20.5122 12.6287L20.6282 12.4946C21.3397 11.6639 21.7244 10.6027 21.7106 9.50911C21.6968 8.41551 21.2854 7.36433 20.5532 6.55191L20.3921 6.38283C19.6176 5.60824 18.5872 5.14262 17.494 5.07319C16.4008 5.00376 15.3197 5.33528 14.4534 6.00566L14.2733 6.15373L12.9637 7.28424L11.6562 6.15373C10.8115 5.42459 9.72623 5.03508 8.61071 5.06075C7.49519 5.08641 6.42894 5.52542 5.61874 6.29263C4.80854 7.05984 4.31212 8.10059 4.22573 9.21305C4.13935 10.3255 4.46916 11.4304 5.15121 12.3135L5.29828 12.4936L5.41233 12.6277L14.3774 21.5927L12.9637 23.0074L3.76759 13.8112L3.78059 13.7982C2.7113 12.5533 2.15224 10.9501 2.21554 9.31023C2.27884 7.67035 2.95982 6.11504 4.12189 4.95626C5.28397 3.79748 6.8412 3.12091 8.48125 3.06226C10.1213 3.00362 11.7229 3.56722 12.9647 4.64004C14.2079 3.5688 15.8102 3.00728 17.4502 3.06814C19.0901 3.12901 20.6464 3.80775 21.8068 4.96819ZM19.9669 15.0037V18.0051H22.9683V20.006H19.9659L19.9669 23.0074H17.966L17.965 20.006H14.9647V18.0051H17.966V15.0037H19.9669Z" fill="#BDBDBD"/>
</g>
</g>
<defs>
<filter id="filter0_d_11_1567" x="-1.79112" y="3.05811" width="29.5047" height="27.9528" filterUnits="userSpaceOnUse" color-interpolation-filters="sRGB">
<feFlood flood-opacity="0" result="BackgroundImageFix"/>
<feColorMatrix in="SourceAlpha" type="matrix" values="0 0 0 0 0 0 0 0 0 0 0 0 0 0 0 0 0 0 127 0" result="hardAlpha"/>
<feOffset dy="4.00181"/>
<feGaussianBlur stdDeviation="2.00091"/>
<feComposite in2="hardAlpha" operator="out"/>
<feColorMatrix type="matrix" values="0 0 0 0 0 0 0 0 0 0 0 0 0 0 0 0 0 0 0.25 0"/>
<feBlend mode="normal" in2="BackgroundImageFix" result="effect1_dropShadow_11_1567"/>
<feBlend mode="normal" in="SourceGraphic" in2="effect1_dropShadow_11_1567" result="shape"/>
</filter>
<clipPath id="clip0_11_1567">
<rect width="24.0109" height="24.0109" fill="white" transform="translate(0.958374 0.997314)"/>
</clipPath>
</defs>
</svg>
