<svg width="22" height="16" viewBox="0 0 22 16" fill="none" xmlns="http://www.w3.org/2000/svg">
<path d="M16 0C17.5913 0 19.1174 0.632141 20.2426 1.75736C21.3679 2.88258 22 4.4087 22 6V10C22 11.5913 21.3679 13.1174 20.2426 14.2426C19.1174 15.3679 17.5913 16 16 16H6C4.4087 16 2.88258 15.3679 1.75736 14.2426C0.632141 13.1174 0 11.5913 0 10V6C0 4.4087 0.632141 2.88258 1.75736 1.75736C2.88258 0.632141 4.4087 0 6 0H16ZM16 2H6C4.97376 2 3.98677 2.39444 3.24319 3.10172C2.4996 3.80901 2.05631 4.77504 2.005 5.8L2 6V10C2 11.0262 2.39444 12.0132 3.10172 12.7568C3.80901 13.5004 4.77504 13.9437 5.8 13.995L6 14H16C17.0262 14 18.0132 13.6056 18.7568 12.8983C19.5004 12.191 19.9437 11.225 19.995 10.2L20 10V6C20 4.97376 19.6056 3.98677 18.8983 3.24319C18.191 2.4996 17.225 2.05631 16.2 2.005L16 2ZM9 5V7H11V9H8.999L9 11H7L6.999 9H5V7H7V5H9ZM17 9V11H15V9H17ZM15 5V7H13V5H15Z" fill="black"/>
</svg>
