<svg width="25" height="26" viewBox="0 0 25 26" fill="none" xmlns="http://www.w3.org/2000/svg">
<path d="M19.9308 22.0069H5.92442C5.65908 22.0069 5.40461 21.9015 5.21699 21.7138C5.02937 21.5262 4.92397 21.2717 4.92397 21.0064V12.0023H1.92261L12.2543 2.61008C12.4385 2.44249 12.6786 2.34961 12.9276 2.34961C13.1766 2.34961 13.4167 2.44249 13.6009 2.61008L23.9326 12.0023H20.9312V21.0064C20.9312 21.2717 20.8258 21.5262 20.6382 21.7138C20.4506 21.9015 20.1961 22.0069 19.9308 22.0069ZM6.92487 20.006H18.9303V10.1585L12.9276 4.70203L6.92487 10.1585V20.006ZM12.9276 16.0041C12.2642 16.0041 11.6281 15.7406 11.159 15.2716C10.69 14.8025 10.4265 14.1664 10.4265 13.503C10.4265 12.8397 10.69 12.2035 11.159 11.7344C11.6281 11.2654 12.2642 11.0019 12.9276 11.0019C13.5909 11.0019 14.2271 11.2654 14.6962 11.7344C15.1652 12.2035 15.4287 12.8397 15.4287 13.503C15.4287 14.1664 15.1652 14.8025 14.6962 15.2716C14.2271 15.7406 13.5909 16.0041 12.9276 16.0041V16.0041Z" fill="#BDBDBD"/>
</svg>
