<svg width="20" height="18" viewBox="0 0 20 18" fill="none" xmlns="http://www.w3.org/2000/svg">
<path d="M1 0H19C19.2652 0 19.5196 0.105357 19.7071 0.292893C19.8946 0.48043 20 0.734784 20 1V17C20 17.2652 19.8946 17.5196 19.7071 17.7071C19.5196 17.8946 19.2652 18 19 18H1C0.734784 18 0.48043 17.8946 0.292893 17.7071C0.105357 17.5196 0 17.2652 0 17V1C0 0.734784 0.105357 0.48043 0.292893 0.292893C0.48043 0.105357 0.734784 0 1 0ZM2 2V16H18V2H2ZM7 10H6V8H7V7C6.99954 6.18727 7.28193 5.3997 7.79872 4.77244C8.31552 4.14518 9.0345 3.71732 9.83231 3.56228C10.6301 3.40723 11.457 3.53467 12.1711 3.92272C12.8852 4.31077 13.442 4.93525 13.746 5.689L11.76 6.185C11.5847 5.91222 11.3256 5.70365 11.0217 5.59057C10.7178 5.47749 10.3855 5.46601 10.0745 5.55784C9.76349 5.64967 9.49067 5.83986 9.29694 6.09989C9.10321 6.35991 8.99902 6.67574 9 7V8H12V10H9V12H14V14H6V12H7V10Z" fill="black"/>
</svg>
