<svg width="20" height="19" viewBox="0 0 20 19" fill="none" xmlns="http://www.w3.org/2000/svg">
<path d="M16 17H4V19H2V17H1C0.734784 17 0.48043 16.8946 0.292893 16.7071C0.105357 16.5196 0 16.2652 0 16V1C0 0.734784 0.105357 0.48043 0.292893 0.292893C0.48043 0.105357 0.734784 0 1 0H19C19.2652 0 19.5196 0.105357 19.7071 0.292893C19.8946 0.48043 20 0.734784 20 1V16C20 16.2652 19.8946 16.5196 19.7071 16.7071C19.5196 16.8946 19.2652 17 19 17H18V19H16V17ZM2 15H18V2H2V15ZM11 10.874V14H9V10.874C8.05951 10.6283 7.24061 10.0486 6.6962 9.24333C6.15179 8.43802 5.9191 7.46209 6.04156 6.49778C6.16403 5.53346 6.63329 4.64669 7.36172 4.00303C8.09015 3.35937 9.02794 3.00284 10 3C10.9743 2.99904 11.9154 3.35368 12.6467 3.99737C13.3781 4.64106 13.8493 5.52954 13.9721 6.49605C14.0948 7.46255 13.8606 8.44062 13.3134 9.24669C12.7662 10.0528 11.9436 10.6314 11 10.874ZM10 9C10.5304 9 11.0391 8.78929 11.4142 8.41421C11.7893 8.03914 12 7.53043 12 7C12 6.46957 11.7893 5.96086 11.4142 5.58579C11.0391 5.21071 10.5304 5 10 5C9.46957 5 8.96086 5.21071 8.58579 5.58579C8.21071 5.96086 8 6.46957 8 7C8 7.53043 8.21071 8.03914 8.58579 8.41421C8.96086 8.78929 9.46957 9 10 9Z" fill="black"/>
</svg>
