<svg width="10" height="14" viewBox="0 0 10 14" fill="none" xmlns="http://www.w3.org/2000/svg">
<path d="M1.43361 13.5V8.874H0.0296094V7.722H1.43361V6.246H0.0296094V5.094H1.43361V0.647999H3.30561L5.01561 5.094H7.13961V0.647999H8.56161V5.094H9.96561V6.246H8.56161V7.722H9.96561V8.874H8.56161V13.5H6.67161L4.96161 8.874H2.83761V13.5H1.43361ZM2.83761 7.722H4.52961L3.98961 6.246H2.80161L2.83761 7.722ZM7.13961 10.962H7.21161L7.15761 8.874H6.40161L7.13961 10.962ZM2.80161 5.094H3.55761L2.80161 2.862H2.72961L2.80161 5.094ZM5.96961 7.722H7.17561L7.13961 6.246H5.42961L5.96961 7.722Z" fill="white"/>
</svg>
