<svg width="25" height="26" viewBox="0 0 25 26" fill="none" xmlns="http://www.w3.org/2000/svg">
<path d="M4.06885 23.0073C4.06885 20.8846 4.91208 18.8489 6.41305 17.3479C7.91402 15.8469 9.94978 15.0037 12.0725 15.0037C14.1952 15.0037 16.2309 15.8469 17.7319 17.3479C19.2329 18.8489 20.0761 20.8846 20.0761 23.0073H18.0752C18.0752 21.4153 17.4428 19.8885 16.317 18.7627C15.1913 17.637 13.6645 17.0046 12.0725 17.0046C10.4805 17.0046 8.95364 17.637 7.82791 18.7627C6.70218 19.8885 6.06975 21.4153 6.06975 23.0073H4.06885ZM12.0725 14.0032C8.75597 14.0032 6.06975 11.317 6.06975 8.00052C6.06975 4.68402 8.75597 1.9978 12.0725 1.9978C15.389 1.9978 18.0752 4.68402 18.0752 8.00052C18.0752 11.317 15.389 14.0032 12.0725 14.0032ZM12.0725 12.0023C14.2835 12.0023 16.0743 10.2115 16.0743 8.00052C16.0743 5.78952 14.2835 3.99871 12.0725 3.99871C9.86147 3.99871 8.07066 5.78952 8.07066 8.00052C8.07066 10.2115 9.86147 12.0023 12.0725 12.0023Z" fill="#BDBDBD"/>
</svg>
