<svg width="26" height="26" viewBox="0 0 26 26" fill="none" xmlns="http://www.w3.org/2000/svg">
<path d="M11.9994 2.99829C16.9697 2.99829 21.0035 7.03212 21.0035 12.0024C21.0035 16.9726 16.9697 21.0064 11.9994 21.0064C7.02919 21.0064 2.99536 16.9726 2.99536 12.0024C2.99536 7.03212 7.02919 2.99829 11.9994 2.99829ZM11.9994 19.0055C15.8682 19.0055 19.0026 15.8711 19.0026 12.0024C19.0026 8.13261 15.8682 4.9992 11.9994 4.9992C8.12968 4.9992 4.99627 8.13261 4.99627 12.0024C4.99627 15.8711 8.12968 19.0055 11.9994 19.0055ZM20.4883 19.0766L23.3186 21.9058L21.9029 23.3215L19.0736 20.4912L20.4883 19.0766V19.0766Z" fill="#BDBDBD"/>
</svg>
