<svg width="22" height="20" viewBox="0 0 22 20" fill="none" xmlns="http://www.w3.org/2000/svg">
<path d="M18 20H4C3.73478 20 3.48043 19.8947 3.29289 19.7071C3.10536 19.5196 3 19.2653 3 19V10H0L10.327 0.612042C10.5111 0.44452 10.7511 0.351685 11 0.351685C11.2489 0.351685 11.4889 0.44452 11.673 0.612042L22 10H19V19C19 19.2653 18.8946 19.5196 18.7071 19.7071C18.5196 19.8947 18.2652 20 18 20ZM5 18H17V8.15704L11 2.70304L5 8.15704V18ZM7.591 12.809C7.46429 12.2758 7.46429 11.7203 7.591 11.187L6.6 10.615L7.6 8.88304L8.591 9.45604C8.98885 9.07903 9.4698 8.80087 9.995 8.64404V7.50004H11.995V8.64404C12.527 8.80304 13.005 9.08404 13.399 9.45604L14.39 8.88304L15.39 10.614L14.399 11.187C14.5257 11.7203 14.5257 12.2758 14.399 12.809L15.39 13.381L14.39 15.112L13.399 14.54C13.001 14.9167 12.5201 15.1945 11.995 15.351V16.496H9.995V15.35C9.4699 15.1935 8.98896 14.9157 8.591 14.539L7.6 15.111L6.6 13.381L7.591 12.808V12.809ZM10.995 13.497C11.1965 13.5044 11.3973 13.4711 11.5856 13.3991C11.7739 13.327 11.9458 13.2178 12.0909 13.0779C12.236 12.938 12.3514 12.7702 12.4303 12.5847C12.5091 12.3992 12.5498 12.1996 12.5498 11.998C12.5498 11.7964 12.5091 11.5969 12.4303 11.4114C12.3514 11.2259 12.236 11.0581 12.0909 10.9182C11.9458 10.7783 11.7739 10.669 11.5856 10.597C11.3973 10.525 11.1965 10.4917 10.995 10.499C10.6069 10.5132 10.2395 10.6774 9.96991 10.9569C9.70037 11.2365 9.54976 11.6097 9.54976 11.998C9.54976 12.3864 9.70037 12.7596 9.96991 13.0392C10.2395 13.3187 10.6069 13.4829 10.995 13.497Z" fill="black"/>
</svg>
